{"title":"Gin no Saji (Silver Spoon)","uid":9526048,"size":960377221,"categoryP":"video","categoryS":"tv_shows","magnet":"?xt=urn:btih:939b8af00aca9d9fe81413c63f3355590c927ca4&amp;dn=Gin+no+Saji+%28Silver+Spoon%29&amp;tr=udp%3A%2F%2Ftracker.openbittorrent.com%3A80&amp;tr=udp%3A%2F%2Fopen.demonii.com%3A1337&amp;tr=udp%3A%2F%2Ftracker.coppersurfer.tk%3A6969&amp;tr=udp%3A%2F%2Fexodus.desync.com%3A6969","seeders":2,"leechers":1,"uploader":"p7trick","files":-1,"time":1390753347,"description":"downloaded from animewaffles\n\nGin no Saji (Silver Spoon) eps 1-11 ENGLISH SUBBED\n_________________________________________________________\n\nFormat                                   : MPEG-4\nFormat profile                           : Base Media\nCodec ID                                 : isom\nFile size                                : 43.6 MiB\nDuration                                 : 22mn 50s\nOverall bit rate mode                    : Variable\nOverall bit rate                         : 267 Kbps\n\n\nVideo\nID                                       : 1\nFormat                                   : AVC\nFormat/Info                              : Advanced Video Codec\nFormat profile                           : &lt;a class=&quot;__cf_email__&quot; href=&quot;/cdn-cgi/l/email-protection&quot; data-cfemail=&quot;1951707e7159552a3729&quot;&gt;[email&amp;#160;protected]&lt;/a&gt;&lt;script cf-hash='f9e31' type=&quot;text/javascript&quot;&gt;\n/* &lt;![CDATA[ */!function(){try{var t=&quot;currentScript&quot;in document?document.currentScript:function(){for(var t=document.getElementsByTagName(&quot;script&quot;),e=t.length;e--;)if(t[e].getAttribute(&quot;cf-hash&quot;))return t[e]}();if(t&amp;&amp;t.previousSibling){var e,r,n,i,c=t.previousSibling,a=c.getAttribute(&quot;data-cfemail&quot;);if(a){for(e=&quot;&quot;,r=parseInt(a.substr(0,2),16),n=2;a.length-n;n+=2)i=parseInt(a.substr(n,2),16)^r,e+=String.fromCharCode(i);e=document.createTextNode(e),c.parentNode.replaceChild(e,c)}}}catch(u){}}();/* ]]&gt; */&lt;/script&gt;\nFormat settings, CABAC                   : Yes\nFormat settings, ReFrames                : 4 frames\nCodec ID                                 : avc1\nCodec ID/Info                            : Advanced Video Coding\nDuration                                 : 22mn 50s\nBit rate                                 : 167 Kbps\nMaximum bit rate                         : 1 279 Kbps\nWidth                                    : 656 pixels\nHeight                                   : 368 pixels\nDisplay aspect ratio                     : 16:9\nOriginal display aspect ratio            : 16:9\nFrame rate mode                          : Constant\nFrame rate                               : 23.976 fps\nColor space                              : YUV\nChroma subsampling                       : 4:2:0\nBit depth                                : 8 bits\nScan type                                : Progressive\nBits/(Pixel*Frame)                       : 0.029\nStream size                              : 27.3 MiB (63%)\n\nAudio\nID                                       : 2\nFormat                                   : AAC\nFormat/Info                              : Advanced Audio Codec\nFormat profile                           : LC\nCodec ID                                 : 40\nDuration                                 : 22mn 50s\nBit rate mode                            : Variable\nBit rate                                 : 96.0 Kbps\nMaximum bit rate                         : 107 Kbps\nChannel(s)                               : 2 channels\nChannel positions                        : Front: L R\nSampling rate                            : 44.1 KHz\nCompression mode                         : Lossy\nStream size                              : 15.7 MiB (36%)\n_________________________________________________________\n\nSummary:\nThe young boy named Hachiken Yuugo apparently aspires to live separated from his family. So he takes his chances by enrolling to an agriculture school, one which requires its students to live at a dormitory. He thinks, with his talent in studying, no problem will arise no matter what kind of school he goes to. But he is proven wrong. Grown up as all-easy-to-get city boy, he is forced to uncover not-too-convenient truths about agricultural life. Enjoy the story of Hachiken, as he is trying to keep up with his friends, farmers' heirs who are already accustomed to hardworking farm life.\n\n\nFor updates/requests:\nTwitter - @p7tricktorrent\nFacebook - /p7tricktorrent\nTPB - /user/p7trick/\nKAT - /user/iPirate7\n_________________________________________________________\n\nSEED!\n\nshare ratio:\n&quot;Scumbag = 0.1:1\nLeecher = 0.999:1\nMinimum = 1:1\nGood = 3:1\nGreat = 5:1\nAwesome = 10:1\n1337 = 100:1&quot;\t","torrent":{"xt":"urn:btih:939b8af00aca9d9fe81413c63f3355590c927ca4","amp;dn":"Gin+no+Saji+%28Silver+Spoon%29","amp;tr":["udp%3A%2F%2Ftracker.openbittorrent.com%3A80","udp%3A%2F%2Fopen.demonii.com%3A1337","udp%3A%2F%2Ftracker.coppersurfer.tk%3A6969","udp%3A%2F%2Fexodus.desync.com%3A6969"],"infoHash":"939b8af00aca9d9fe81413c63f3355590c927ca4","infoHashBuffer":{"type":"Buffer","data":[147,155,138,240,10,202,157,159,232,20,19,198,63,51,85,89,12,146,124,164]},"announce":[],"urlList":[]}}